Fly_normalized_Motion_pl14
version=1
nRows=12
nColumns=43
inDegrees=yes
endheader
time		pelvis_tilt		pelvis_list		pelvis_rotation		pelvis_tx		pelvis_ty		pelvis_tz		hip_flexion_r		hip_adduction_r		hip_rotation_r		knee_angle_r		ankle_angle_r		subtalar_angle_r		mtp_angle_r		hip_flexion_l		hip_adduction_l		hip_rotation_l		knee_angle_l		ankle_angle_l		subtalar_angle_l		mtp_angle_l		lumbar_extension		lumbar_bending		lumbar_rotation		neck_flexion		neck_lateral_bending		neck_rotation		arm_flex_r		arm_add_r		arm_rot_r		elbow_flex_r		pro_sup_r		wrist_flex_r		wrist_dev_r		hand_finger_flex_r		arm_flex_l		arm_add_l		arm_rot_l		elbow_flex_l		pro_sup_l		wrist_flex_l		wrist_dev_l		hand_finger_flex_l		
1.178333		-0.801525		1.302747		90.036239		0.030742		1.494378		0.950002		33.481931		-5.168880		-3.822553		-42.931776		-21.917270		-11.653372		-9.028763		36.972595		-7.091248		-10.630595		-34.164789		-29.831005		8.725504		11.468333		-39.767695		-3.395353		-1.491325		3.608333		-0.584514		-0.682421		-42.878292		-57.110461		-18.675797		62.967495		102.057199		44.310371		17.230567		-7.574329		-18.131722		-48.646205		1.022182		53.461847		123.251532		-4.020498		1.909479		-11.287149		
1.182551		-0.820564		1.548720		90.171247		0.030710		1.482516		0.939739		32.898945		-5.181053		-4.231264		-41.880554		-21.812435		-11.521131		-9.104040		36.388629		-7.104140		-10.942938		-33.638640		-30.186366		8.799288		11.417304		-39.516216		-3.432540		-1.604103		2.329286		-0.599099		-0.651499		-45.930897		-55.607067		-20.164476		62.147531		102.008626		44.252685		16.743018		-7.444452		-21.425378		-47.971613		-0.066985		53.125728		123.110527		-4.447708		1.527306		-11.514734		
1.186768		-0.843597		1.864927		90.324932		0.030756		1.470533		0.929632		32.178213		-5.192541		-4.646720		-40.733803		-21.551220		-11.202612		-9.126201		35.726687		-7.079335		-11.127737		-33.088938		-30.399180		8.867438		11.398133		-39.478116		-3.435795		-1.756458		1.709689		-0.693491		-0.617372		-49.220491		-53.992978		-21.921267		61.877570		102.193626		43.904313		16.172614		-7.449930		-24.800440		-46.957714		-1.815960		52.808342		122.944027		-5.018375		0.947762		-11.858489		
1.190985		-0.854817		2.150863		90.452137		0.030908		1.458385		0.919356		31.499319		-5.193997		-5.124454		-39.601795		-21.487519		-10.868072		-9.133354		35.053276		-7.091931		-11.395860		-32.500315		-30.625500		8.864821		11.341877		-39.298716		-3.472393		-1.883235		0.633500		-0.766715		-0.583355		-51.888404		-52.347323		-23.182136		61.180900		102.272117		43.546441		15.609883		-7.464339		-27.975058		-46.062745		-3.059033		52.447778		122.931199		-5.422634		0.542780		-12.186674		
1.195202		-0.880320		2.430211		90.529923		0.030877		1.445997		0.908953		30.862073		-5.205868		-5.579433		-38.526959		-21.511392		-10.506736		-9.126356		34.379190		-7.101250		-11.712296		-31.937527		-30.859821		8.819200		11.250131		-39.054295		-3.537795		-1.972996		-0.629894		-0.762664		-0.577751		-54.377142		-50.727174		-24.285564		60.388849		102.207101		43.032405		15.058716		-7.579809		-31.053086		-45.055228		-4.174734		52.110625		122.812234		-5.939689		0.231870		-12.544371		
1.199419		-0.928105		3.150382		90.671377		0.030704		1.434352		0.898447		29.597541		-5.293350		-6.184592		-37.243643		-21.300795		-9.708934		-8.958788		33.146388		-7.026950		-11.981060		-31.238929		-30.921744		8.741642		11.008818		-39.429522		-3.561543		-2.271891		-1.097787		-0.843426		-0.445147		-56.823200		-49.177666		-25.321814		60.052999		103.000773		42.032676		14.042720		-7.427002		-34.299925		-43.606720		-6.305642		51.919638		123.344507		-6.014008		-0.395821		-13.282416		
1.203636		-0.961548		3.471503		90.713998		0.030712		1.421813		0.887916		28.863233		-5.291858		-6.667284		-36.046583		-21.484433		-9.264355		-8.908346		32.353434		-7.027586		-12.357874		-30.556179		-31.080639		8.608520		10.829337		-39.189136		-3.672201		-2.319775		-2.384224		-0.743911		-0.425569		-58.961877		-47.543714		-26.087218		59.284395		103.137336		41.410224		13.332723		-7.350370		-37.114339		-42.442947		-7.411778		51.598054		123.482974		-6.253909		-0.603130		-13.806916		
1.207854		-0.988187		3.774852		90.728024		0.030721		1.409055		0.877363		28.174893		-5.272109		-7.169445		-34.867602		-21.739523		-8.797380		-8.879057		31.575563		-7.042537		-12.762792		-29.874452		-31.208160		8.447098		10.667611		-38.912941		-3.781728		-2.327597		-3.696992		-0.776075		-0.374468		-61.015477		-45.872179		-26.843982		58.535312		103.206874		40.698801		12.653770		-7.358710		-39.853744		-41.268182		-8.383150		51.345264		123.502589		-6.550844		-0.829647		-14.299429		
1.212071		-0.983875		4.107580		90.698532		0.030586		1.396148		0.866787		27.463114		-5.230489		-7.750844		-33.680993		-22.039187		-8.290316		-8.866246		30.769518		-7.092286		-13.196808		-29.188857		-31.344140		8.268561		10.519010		-38.633956		-3.865219		-2.250643		-5.168290		-0.736202		-0.348708		-63.076386		-44.194978		-27.616910		57.875830		103.255422		39.948102		11.967383		-7.431861		-42.480056		-39.996535		-9.329541		51.163876		123.435652		-6.920393		-1.088138		-14.781185		
1.216288		-0.951953		4.440470		90.687192		0.030771		1.383166		0.856145		26.703775		-5.142187		-8.425382		-32.413461		-22.357150		-7.724009		-8.842988		29.931840		-7.175520		-13.628090		-28.435541		-31.409802		8.102472		10.368557		-38.353532		-3.950571		-2.144802		-6.666807		-0.740397		-0.293015		-64.962213		-42.429678		-28.308569		57.241020		103.342140		39.232137		11.225737		-7.461931		-45.028773		-38.774034		-10.234969		51.012078		123.399689		-7.219889		-1.380522		-15.298328		
1.220505		-0.888978		4.752851		90.676834		0.030979		1.370003		0.845444		25.932988		-5.025735		-9.174180		-31.091802		-22.696108		-7.097390		-8.812639		29.114424		-7.286227		-14.056471		-27.663265		-31.431012		7.961200		10.216503		-38.028909		-4.011854		-1.987360		-8.255890		-0.701676		-0.263988		-66.722261		-40.605440		-29.003330		56.569768		103.437457		38.587524		10.475105		-7.457280		-47.489594		-37.554880		-11.104347		50.912563		123.354740		-7.504782		-1.688603		-15.850058		
1.224722		-0.814456		5.798954		90.861444		0.030779		1.358280		0.834291		24.085049		-5.041558		-10.494444		-29.446469		-22.841405		-5.905657		-8.248618		27.344461		-7.311892		-14.453144		-26.628102		-31.224214		8.163983		9.583410		-38.567707		-3.939730		-1.983295		-9.462572		-0.536238		-0.175965		-68.278956		-38.697540		-29.913002		55.905556		104.984279		37.976811		8.630827		-6.266122		-49.827702		-36.119118		-12.600038		50.932740		124.025139		-6.660309		-2.234615		-17.913264		
